<?xml version="1.0" encoding="UTF-8"?> <svg xmlns="http://www.w3.org/2000/svg" width="1000" height="539" viewBox="0 0 1000 539" fill="none"><path d="M936.97 537.398C936.97 537.398 1055.42 410.222 957.001 272.538C869.681 150.372 767.871 158.725 693.177 208.3C661.362 229.414 569.641 210.902 491.573 86.5946C385.112 -82.9239 -4.97628 3.91251 63.7527 281.831C95.0446 408.368 -15.7399 411.504 51.3473 537.665L936.97 537.398Z" fill="#E8EFFD"></path><path d="M1.1428 538.677H998.856C999.486 538.677 1000 538.163 1000 537.533V537.121C1000 536.491 999.486 535.977 998.856 535.977H1.14314C0.514565 535.977 0 536.491 0 537.121V537.537C0 538.163 0.514226 538.677 1.1428 538.677Z" fill="#2E3552"></path><path d="M411.428 450.122C411.428 450.122 397.514 433.89 410.572 423.578C410.572 423.578 420.109 417.803 427.883 418.273C427.883 418.273 416.865 436.748 420.431 438.589C423.996 440.426 431.223 417.113 431.223 417.113C431.223 417.113 452.928 415.009 459.908 418.365C459.908 418.365 441.355 433.548 445.262 434.451C449.17 435.355 469.211 420.452 469.211 420.452C469.211 420.452 489.411 423.893 488.332 436.214C487.256 448.535 480.294 452.341 477.236 452.013C474.177 451.685 456.284 444.854 455.892 447.361C455.503 449.868 466.274 458.058 473.819 458.441C473.819 458.441 459.576 474.148 450.114 469.615C440.648 465.081 439.839 457.896 433.939 455.203C428.039 452.507 423.005 452.513 425.441 455.264C427.877 458.011 438.554 460.68 441.927 466.651C445.3 472.619 448.327 476.645 438.537 475.17C428.743 473.695 412.825 466.533 412.129 458.325C411.428 450.122 411.428 450.122 411.428 450.122" fill="#91B3FA"></path><path d="M478.406 436.546C478.406 436.546 423.547 434.431 411.428 450.122C411.428 450.122 408.749 458.147 400.505 465.454L399.219 468.959C399.219 468.959 408.725 458.935 412.129 458.326C412.129 458.326 406.807 438.887 478.406 436.546" fill="#91B3FA"></path><path d="M400.505 465.454C400.505 465.454 388.728 474.162 387.909 489.724L390.048 489.913C390.048 489.913 393.809 473.827 400.606 467.534C407.406 461.242 400.505 465.454 400.505 465.454" fill="#91B3FA"></path><path d="M362.78 429.708C362.78 429.708 384.915 417.313 374.583 400.489C374.583 400.489 366.322 390.16 357.469 387.505C357.469 387.505 362.188 412.59 357.469 413.179C352.746 413.771 354.221 384.849 354.221 384.849C354.221 384.849 330.905 373.634 321.757 374.517C321.757 374.517 336.219 399.014 331.497 398.422C326.774 397.833 310.542 373.042 310.542 373.042C310.542 373.042 286.637 368.617 282.801 382.782C278.964 396.947 285.162 404.031 288.703 404.917C292.243 405.8 314.97 405.506 314.378 408.459C313.79 411.409 298.441 416.132 289.885 413.477C289.885 413.477 299.327 436.789 311.723 435.609C324.118 434.428 327.955 426.755 335.627 426.166C343.3 425.574 348.909 427.641 345.073 429.708C341.237 431.772 328.249 430.385 322.051 435.653C315.853 440.923 310.836 444.168 322.349 446.529C333.858 448.89 354.515 447.415 358.649 438.562C362.78 429.708 362.78 429.708 362.78 429.708Z" fill="#91B3FA"></path><path d="M293.722 387.21C293.722 387.21 355.696 407.279 362.78 429.708C362.78 429.708 362.486 439.743 368.68 451.252V455.677C368.68 455.677 362.188 440.626 358.649 438.562C358.649 438.562 372.52 419.082 293.722 387.21" fill="#91B3FA"></path><path d="M368.68 451.252C368.68 451.252 378.241 465.765 372.791 483.432L370.331 482.772C370.331 482.772 372.72 463.313 367.719 453.525C362.719 443.738 368.68 451.252 368.68 451.252" fill="#91B3FA"></path><path d="M397.994 412.614C397.994 412.614 368.815 396.273 382.432 374.097C382.432 374.097 393.326 360.481 404.997 356.979C404.997 356.979 398.773 390.049 404.997 390.827C411.219 391.605 409.277 353.481 409.277 353.481C409.277 353.481 440.009 338.697 452.069 339.864C452.069 339.864 433.006 372.152 439.231 371.374C445.455 370.596 466.85 337.919 466.85 337.919C466.85 337.919 498.363 332.083 503.421 350.758C508.478 369.429 500.308 378.766 495.64 379.933C490.971 381.1 461.017 380.711 461.796 384.602C462.574 388.492 482.801 394.717 494.084 391.216C494.084 391.216 481.634 421.947 465.297 420.391C448.957 418.835 443.899 408.723 433.784 407.945C423.668 407.167 416.276 409.89 421.334 412.614C426.392 415.334 443.51 413.503 451.68 420.449C459.85 427.394 466.464 431.674 451.291 434.786C436.118 437.899 408.888 435.953 403.441 424.282C397.994 412.614 397.994 412.614 397.994 412.614" fill="#91B3FA"></path><path d="M489.026 356.593C489.026 356.593 407.331 383.046 397.994 412.613C397.994 412.613 398.383 425.838 390.213 441.011V446.847C390.213 446.847 398.772 427.005 403.441 424.282C403.441 424.282 385.155 398.608 489.026 356.593" fill="#91B3FA"></path><path d="M390.213 441.011C390.213 441.011 377.615 460.143 384.797 483.432L388.038 482.562C388.038 482.562 384.892 456.912 391.482 444.009C398.076 431.109 390.213 441.011 390.213 441.011" fill="#91B3FA"></path><path d="M397.01 533.937C428.574 533.937 454.163 508.347 454.163 476.783H339.856C339.856 508.347 365.446 533.937 397.01 533.937" fill="#0C5AD7"></path><path d="M380.132 533.497C382.456 533.788 384.827 533.937 387.233 533.937C418.797 533.937 444.383 508.347 444.383 476.78H430.184C430.184 505.942 408.346 530.002 380.132 533.497" fill="#1945B3"></path><path d="M454.952 536.843H339.068C339.068 532.949 342.225 529.792 346.118 529.792H447.901C451.795 529.792 454.952 532.949 454.952 536.843Z" fill="#0C5AD7"></path><path d="M455.462 478.536H337.979V476.78H455.462V478.536Z" fill="#0C5AD7"></path><path d="M290.609 278.035L290.579 22.6004L651.139 22.5565L651.169 277.991L290.609 278.035" fill="#8EB2DD"></path><path d="M295.315 27.3366L646.402 27.2927L646.433 273.255L295.345 273.299L295.315 27.3366" fill="#D7E6FA"></path><path d="M476.642 223C475.976 223 475.313 222.883 474.692 222.652C474.438 222.557 474.192 222.444 473.955 222.312C472.564 221.536 471.206 220.757 469.871 219.971C461.395 214.982 454.033 209.811 447.651 204.517C446.984 203.963 446.33 203.41 445.683 202.854C432.461 191.473 423.618 179.533 417.677 167.503C417.53 167.205 417.383 166.904 417.24 166.606C416.954 166.012 416.675 165.418 416.401 164.824C415.802 163.515 415.237 162.209 414.7 160.899C404.917 136.987 405.52 113.077 405.001 92.8942C404.968 91.5994 405.55 90.3536 406.605 89.4676C407.547 88.6762 408.787 88.2401 410.069 88.2401C410.22 88.2401 410.371 88.2469 410.524 88.2583C411.718 88.3551 412.994 88.404 414.338 88.404C426.149 88.404 443.313 84.6415 458.457 76.2647C463.8 73.3085 468.891 69.7783 473.407 65.6366C473.9 65.1833 474.548 65 475.243 65C476.384 65 477.652 65.4954 478.58 66.1171C484.691 70.2122 491.977 73.3552 499.53 75.7694C517.777 81.601 537.575 83.1737 546.07 83.5916C548.555 83.7146 550.571 85.4421 550.828 87.6616C554.119 116.156 550.186 139.17 542.69 157.595C540.975 161.809 539.076 165.782 537.032 169.527C518.356 203.743 487.783 218.754 478.809 222.564C478.122 222.855 477.381 223 476.642 223V223ZM414.324 95.1695C413.865 95.1695 413.435 95.33 413.116 95.6227C412.799 95.912 412.629 96.2957 412.636 96.7023L412.686 99.1369C413.044 117.404 413.449 138.108 421.734 158.441C431.011 181.206 448.754 199.856 475.977 215.456C476.253 215.614 476.571 215.694 476.888 215.694C477.151 215.694 477.414 215.639 477.654 215.529C484.748 212.259 502.9 202.671 518.208 184.267C538.703 159.625 547.267 128.419 543.658 91.5152C543.585 90.7738 542.934 90.1976 542.107 90.1418C526.583 89.1169 497.493 85.5844 477.102 73.4554C476.817 73.2868 476.493 73.2037 476.17 73.2037C475.766 73.2037 475.365 73.3335 475.049 73.5886C456.489 88.4963 431.183 95.1695 414.324 95.1695V95.1695ZM476.887 215.074C476.7 215.074 476.512 215.026 476.349 214.934C449.259 199.409 431.606 180.861 422.384 158.228C414.138 137.993 413.732 117.345 413.377 99.1256L413.327 96.6909C413.322 96.4517 413.423 96.2262 413.609 96.0566C413.799 95.8846 414.053 95.789 414.338 95.789C431.315 95.789 456.814 89.0668 475.51 74.0498C475.697 73.8995 475.933 73.8232 476.17 73.8232C476.361 73.8232 476.551 73.8722 476.719 73.9713C497.243 86.1789 526.465 89.7296 542.057 90.7601C542.543 90.792 542.926 91.1325 542.969 91.5698C546.562 128.317 538.045 159.38 517.654 183.897C502.432 202.197 484.39 211.728 477.338 214.977C477.197 215.042 477.042 215.074 476.887 215.074V215.074ZM451.409 127.492C448.083 127.492 445.386 129.91 445.386 132.891V170.235C445.386 173.216 448.083 175.634 451.409 175.634H505.69C509.015 175.634 511.712 173.216 511.712 170.235V132.891C511.712 129.91 509.015 127.492 505.69 127.492H451.409ZM468.6 106.367H488.498C492.426 106.367 495.611 109.222 495.611 112.744V122.582C495.611 124.012 496.904 125.17 498.498 125.17H501.71C503.304 125.17 504.596 124.012 504.596 122.582V112.744C504.596 104.774 497.389 98.3125 488.498 98.3125H468.6C459.709 98.3125 452.501 104.774 452.501 112.744V122.582C452.501 124.012 453.794 125.17 455.389 125.17H458.6C460.194 125.17 461.486 124.012 461.486 122.582V112.744C461.486 109.222 464.671 106.367 468.6 106.367ZM484.146 166.053H472.953C471.509 166.053 470.446 164.843 470.783 163.586L473.395 153.839C470.311 152.187 468.295 149.098 468.501 145.605C468.768 141.078 472.86 137.372 477.907 137.091C478.122 137.08 478.336 137.074 478.548 137.074C484.106 137.074 488.611 141.111 488.611 146.093C488.611 149.385 486.642 152.264 483.704 153.839L486.315 163.586C486.652 164.843 485.589 166.053 484.146 166.053" fill="#F39E5B"></path><path d="M159.944 139.935C159.944 139.935 172.71 155.081 188.967 148.745C188.967 148.745 192.465 140.287 192.515 134.052C192.52 133.284 192.529 132.54 192.542 131.833C192.629 124.813 192.865 120.871 192.865 120.871C192.865 120.871 192.861 120.871 192.849 120.868C192.109 120.56 167.996 110.661 168.016 111.483C168.43 130.473 159.944 139.935 159.944 139.935" fill="#FBC49D"></path><path d="M170.437 116.01C172.762 120.32 180.741 128.754 192.542 131.833C192.629 124.813 192.865 120.872 192.865 120.872C192.865 120.872 192.861 120.872 192.849 120.869C192.181 120.689 169.745 114.742 170.437 116.01" fill="#FBC49D"></path><path d="M197.915 120.145C197.915 120.145 170.798 126.519 167.088 109.569C163.378 92.6237 157.379 82.0314 174.536 77.2443C191.692 72.4573 196.484 78.1848 199.098 83.5402C201.712 88.8956 204.874 118.047 197.915 120.145" fill="#FBC49D"></path><path d="M168.016 114.187C167.645 114.424 161.81 116.217 150.76 94.2032C149.026 90.7491 147.844 83.2726 151.888 76.6688C155.931 70.0617 170.268 64.8687 182.18 62.6088C194.092 60.3489 196.952 67.0508 199.757 73.7864C202.702 80.8604 211.206 86.6827 211.206 86.6827C200.934 92.4204 188.562 84.213 184.276 85.5629C179.99 86.9127 178.476 93.6653 178.154 95.8305C177.833 97.999 177.338 99.7954 171.949 97.8637C166.559 95.9286 169.511 105.499 170.375 107.333C170.375 107.333 171.107 112.208 168.016 114.187Z" fill="#2C3A64"></path><path d="M98.1602 536.843H81.7401C78.2979 536.843 74.4733 533.395 73.5156 527.086C72.5582 520.773 65.4825 517.329 63.9507 512.167C62.4191 507.001 70.2651 499.727 70.2651 499.727L71.5768 498.042L72.9411 496.287L85.948 499.345C85.948 499.345 86.2691 502.444 86.47 506.388C86.6087 509.237 86.6852 512.529 86.5228 515.414C86.1395 522.306 88.4518 529.721 94.5697 531.061C100.693 532.401 98.1602 536.843 98.1602 536.843" fill="#2C3A64"></path><path d="M212.468 536.843H168.943C168.527 536.762 168.211 536.67 168.019 536.576C165.113 535.121 166.023 523.994 166.373 520.557C166.44 519.921 166.488 519.549 166.488 519.549C166.488 519.549 181.792 507.305 183.898 516.68C183.965 516.971 184.042 517.258 184.123 517.542V517.546C186.78 526.318 198.657 530.3 205.518 531.41C210.759 532.262 212.119 535.317 212.468 536.843" fill="#2C3A64"></path><path d="M203.696 285.85C203.696 285.85 201.372 314.85 198.64 349.709C194.926 397.062 190.461 455.23 190.019 466.249C189.256 485.384 186.191 515.99 186.191 515.99C186.191 515.99 178.926 523.26 164.383 520.195C164.383 520.195 151.424 476.503 147.722 430.277C147.664 429.519 147.607 428.754 147.55 427.99C144.106 380.931 138.752 281.831 138.752 281.831L203.696 285.85" fill="#2B478B"></path><path d="M203.696 285.85C203.696 285.85 201.372 314.85 198.64 349.709L147.722 430.276C147.664 429.519 147.607 428.754 147.55 427.989C144.106 380.931 138.752 281.831 138.752 281.831L203.696 285.85" fill="#2B478B"></path><path d="M193.081 289.295C193.081 289.295 151.185 394.318 123.637 443.677C96.0892 493.033 87.4806 506.809 87.4806 506.809C87.4806 506.809 71.6979 500.496 70.2632 496.189C70.2632 496.189 80.7977 400.905 99.2455 377.677C109.67 364.551 121.916 325.162 122.49 311.389C123.064 297.617 126.22 270.353 126.22 270.353L193.081 289.295Z" fill="#2B478B"></path><path d="M97.5367 270.21L97.0936 276.966C97.0936 276.966 101.548 288.966 89.0666 295.119C89.0666 295.119 83.7241 297.274 83.5072 293.117C83.2907 288.956 83.9741 290.522 83.5404 284.662C83.1056 278.806 85.4085 273.272 89.2824 271.408L92.4615 267.74L97.5367 270.21" fill="#FBC49D"></path><path d="M92.6612 275.129C97.2987 276.618 98.0419 276.279 98.0419 276.279C98.0419 276.279 120.612 235.189 122.898 231.427C125.184 227.665 170.82 185.346 170.82 185.346L159.092 141.613C159.092 141.613 107.187 208.828 101.582 218.473C92.3198 234.411 86.8931 271.425 86.8931 271.425C86.8931 271.425 89.019 273.959 92.6612 275.129Z" fill="#0C5AD7"></path><path d="M127.567 288.361C139.037 295.137 149.862 300.165 162.432 302.817C177.329 306.061 195.526 304.674 201.627 305.442C202.28 305.517 202.88 305.341 203.41 304.985C203.858 304.705 206.255 286.328 208.543 263.073C208.604 262.538 208.665 261.973 208.709 261.412C208.74 261.036 208.762 260.661 208.771 260.295L208.811 259.967C209.06 257.552 209.301 255.089 209.524 252.599C210.086 246.394 210.572 240.024 211.023 233.67C211.067 233.065 211.111 232.456 211.15 231.847C211.856 221.596 212.378 211.498 212.54 202.516C212.544 202.303 212.549 202.086 212.549 201.873C212.672 194.353 212.544 187.63 212.067 182.292C211.97 181.165 211.856 180.11 211.72 179.115C209.941 165.634 203.415 156.148 197.288 149.026L191.297 142.226C185.547 142.73 180.568 142.937 174.953 139.334C168.87 135.433 164.941 131.763 163.709 132.449C154.295 137.96 144.099 151.506 138.988 169.896C136.24 179.799 134.194 190.942 132.914 202.675C132.427 207.181 132.051 211.762 131.792 216.403C130.459 241.306 126.559 262.582 124.297 274.951C123.649 278.51 123.136 281.338 122.855 283.297C122.575 285.076 126.046 287.461 127.567 288.361" fill="#0C5AD7"></path><path d="M170.82 171.963C170.82 171.963 175.943 228.602 208.709 261.411C208.74 261.036 208.762 260.66 208.77 260.295L208.81 259.967C209.06 257.551 209.301 255.088 209.524 252.598C210.085 246.394 210.572 240.023 211.023 233.67C211.067 233.064 211.111 232.455 211.15 231.847C211.856 221.596 212.378 211.497 212.54 202.515C212.544 202.302 212.549 202.086 212.549 201.873C212.483 196.504 212.325 191.608 212.067 187.309C201.574 178.932 187.957 173.083 170.82 171.963" fill="#0C5AD7"></path><path d="M280.054 285.16L341.017 105.976C341.298 105.161 341.67 104.383 340.861 104.085L340.12 103.818C339.288 103.513 339.045 104.051 338.743 104.88L273.759 281.489C273.145 283.178 273.942 285.052 275.582 285.783L277.087 286.452C278.263 286.973 279.635 286.378 280.054 285.16" fill="#2A4E96"></path><path d="M296.428 208.161C296.458 205.54 303.377 199.477 303.837 200.208C304.165 200.732 303.451 203.486 303.065 204.646C305.938 202.725 306.594 195.925 311.445 192.894C312.792 192.051 317.579 205.191 313.039 209.958C308.499 214.725 306.32 214.197 298.759 218.608L293.282 218.974L290.579 210.462C290.579 210.462 293.498 209.393 296.428 208.161" fill="#FBC49D"></path><path d="M299.26 215.046C299.618 209.88 292.805 206.89 292.805 206.89C292.805 206.89 240.898 212.303 236.433 210.899C231.969 209.491 198.608 161.621 198.608 161.621C198.608 161.621 183.974 145.115 171.991 148.762C161.578 151.928 157.508 160.051 156.122 167.788C154.471 177.01 158.721 186.287 166.706 191.186C184.631 202.18 215.983 232.483 224.435 234.959C243.245 240.473 296.969 222.448 296.969 222.448C296.969 222.448 298.979 219.106 299.26 215.046Z" fill="#0C5AD7"></path><path d="M878.173 374.98C879.113 351.792 881.146 331.623 883.579 317.556C887.456 295.133 890.947 282.233 890.988 282.098C891.499 280.126 898.877 272.148 915.285 272.392C931.689 272.639 930.133 283.103 930.133 283.103C930.137 283.455 930.089 283.786 930.018 284.033C929.859 284.571 914.798 339.177 915.451 409.68C915.461 410.671 915.573 412.383 915.501 413.523C915.501 413.527 877.483 414.504 877.472 413.523C876.146 407.359 876.792 390.285 878.173 374.98" fill="#B7D3F3"></path><path d="M873.389 409.335C873.403 410.316 873.92 411.104 874.553 411.104H874.57C875.199 411.088 875.703 410.303 875.713 409.335H908.296C908.306 410.316 908.823 411.104 909.456 411.104H909.473C910.116 411.088 910.626 410.276 910.62 409.281C910.43 389.101 911.58 370.254 913.323 353.623C917.653 312.14 925.661 284.419 925.776 284.033C925.847 283.786 925.891 283.458 925.891 283.103C925.891 283.103 927.447 272.639 911.043 272.392C894.635 272.145 887.256 280.126 886.745 282.098C886.715 282.203 884.739 289.507 882.111 302.64C881.238 306.991 880.301 311.977 879.336 317.556C876.904 331.623 874.871 351.793 873.927 374.977C872.55 390.285 872.066 403.175 873.389 409.335" fill="#D2E3FC"></path><path d="M913.028 411.104H785.284C785.284 411.104 788.261 399.068 862.238 400.861C914.595 402.129 913.028 411.104 913.028 411.104Z" fill="#C5DCF8"></path><path d="M923.424 536.843C908.613 461.864 912.423 415.854 912.44 415.276C912.477 414.119 910.349 413.073 909.205 413.036C908.045 413.016 902.933 412.695 902.345 413.682C901.566 414.975 898.586 471.665 920.66 536.843H923.424" fill="#B7D3F3"></path><path d="M804.155 536.843C818.966 461.864 815.156 415.854 815.136 415.276C815.099 414.119 817.227 413.073 818.374 413.036C819.531 413.016 824.642 412.695 825.234 413.682C826.009 414.975 828.993 471.665 806.918 536.843H804.155" fill="#B7D3F3"></path><path d="M780.517 536.843C795.328 461.864 791.519 415.854 791.502 415.276C791.465 414.119 793.593 413.073 794.736 413.036C795.893 413.016 801.008 412.695 801.597 413.682C802.372 414.975 805.356 471.665 783.281 536.843H780.517" fill="#B7D3F3"></path><path d="M899.628 536.843C884.817 461.864 888.626 415.854 888.643 415.276C888.68 414.119 886.552 413.073 885.409 413.036C884.252 413.016 879.14 412.695 878.548 413.682C877.773 414.975 874.79 471.665 896.864 536.843H899.628" fill="#B7D3F3"></path><path d="M785.209 414.948H912.95C914.392 414.948 915.569 413.771 915.569 412.33V410.611C915.569 409.17 914.392 407.993 912.95 407.993H785.209C783.772 407.993 782.594 409.17 782.594 410.611V412.33C782.594 413.771 783.772 414.948 785.209 414.948Z" fill="#B7D3F3"></path><path d="M789.699 299.585L747.234 290.387L744.734 296.483C744.734 296.483 791.586 324.363 795.978 322.996C800.365 321.633 789.699 299.585 789.699 299.585" fill="#FBC49D"></path><path d="M828.303 491.625C829.365 492.842 829.501 494.206 828.973 495.66C828.973 495.667 828.969 495.674 828.963 495.681C827.992 498.37 824.774 501.374 821.039 504.372C820.562 504.758 820.14 505.109 819.767 505.434C819.669 505.519 819.575 505.603 819.483 505.688C819.409 505.756 819.334 505.823 819.263 505.887C815.779 509.098 817.091 509.836 810.833 516.351C803.698 523.774 798.786 523.909 797.388 523.232C796.204 522.654 798.606 518.716 801.269 514.291C801.397 514.078 801.523 513.861 801.658 513.645C802.01 513.06 802.362 512.461 802.713 511.869C805.836 506.544 805.034 504.044 804.293 496.117C803.695 489.676 794.273 460.132 794.273 460.132L807.947 457.774C807.947 457.774 812.064 481.303 816.601 484.926C819.027 486.854 821.743 486.881 824.074 488.312C824.24 488.411 824.402 488.512 824.561 488.617C825.884 489.497 827.234 490.403 828.303 491.625" fill="#FBC49D"></path><path d="M828.303 491.625C829.365 492.842 829.501 494.206 828.973 495.66C828.973 495.667 828.97 495.674 828.963 495.681C827.772 498.367 824.639 501.354 821.026 504.345C820.556 504.737 820.14 505.096 819.768 505.434C819.669 505.519 819.575 505.603 819.483 505.688C819.409 505.756 819.335 505.823 819.263 505.887C815.779 509.098 817.092 509.836 810.833 516.351C803.698 523.774 798.786 523.909 797.389 523.232C796.205 522.654 798.606 518.716 801.269 514.291C802.659 513.784 809.111 511.162 813.989 504.92C818.286 499.436 821.151 492.392 824.074 488.312C824.24 488.411 824.402 488.512 824.561 488.617C825.884 489.497 827.234 490.403 828.303 491.625" fill="#1C468A"></path><path d="M718.042 483.086C717.2 487.305 711.181 486.601 704.459 484.961C697.737 483.316 699.337 485.268 689.77 484.209C680.202 483.151 677.303 479.585 677.012 478.161C676.752 476.899 681.478 476.456 686.549 475.87C687.185 475.799 687.828 475.721 688.467 475.64C694.191 474.923 698.383 471.229 703.583 468.194C708.509 465.322 715.86 453.613 715.86 453.613L728.979 454.655C728.979 454.655 722.095 465.112 719.432 469.656C717.866 472.332 717.947 475.867 718.143 478.597C718.245 480.082 718.343 481.598 718.042 483.086" fill="#FBC49D"></path><path d="M704.459 484.961C697.737 483.316 699.337 485.268 689.77 484.209C680.202 483.151 677.303 479.585 677.012 478.161C676.752 476.899 681.478 476.456 686.549 475.87L686.596 475.968C686.596 475.968 692.334 480.035 700.298 480.228C706.787 480.383 713.661 478.526 718.143 478.597C718.245 480.082 718.343 481.598 718.042 483.086C717.2 487.305 711.181 486.601 704.459 484.961" fill="#1C468A"></path><path d="M747.234 290.387C747.234 290.387 744.109 282.728 740.671 282.417C737.231 282.105 726.293 280.383 725.512 281.946C724.73 283.509 725.512 289.139 727.853 291.169C730.197 293.202 744.734 296.483 744.734 296.483L747.234 290.387" fill="#FBC49D"></path><path d="M768.321 399.193L796.597 475.288C796.597 475.288 800.941 475.711 805.105 474.51C808.938 473.404 813.329 470.504 813.329 470.504C813.329 470.504 806.313 397.44 793.454 382.244C780.595 367.044 768.321 399.193 768.321 399.193" fill="#163560"></path><path d="M880.159 368.41C880.159 368.41 798.911 340.936 780.791 346.782C762.672 352.628 708.265 460.869 708.265 460.869C708.265 460.869 709.493 462.503 712.846 463.758C715.962 464.929 723.509 464.855 723.509 464.855C723.509 464.855 772.608 422.769 778.454 410.495C784.3 398.218 786.637 386.53 792.48 387.697C798.326 388.868 867.885 416.338 883.667 399.974C899.449 383.607 895.321 362.341 895.321 362.341L880.159 368.41Z" fill="#1C468A"></path><path d="M830.509 240.605C829.21 237.926 827.758 233.169 827.051 224.685C827.16 225.527 828.621 236.224 832.735 242.28C849.633 253.377 882.019 290.418 881.376 297.438C881.376 297.438 892.784 278.086 892.984 277.971C892.984 277.971 914.026 251.211 889.086 235.886C876.41 228.095 876.474 218.098 877.002 209.41C877.537 200.726 873.545 163.336 848.155 173.12C848.155 173.12 844.078 171.31 842.255 171.581C842.255 171.581 843.743 171.868 844.504 172.65C841.558 172.474 837.349 172.694 833.838 174.69C824.531 179.978 816.198 227.435 830.509 240.605" fill="#2C3A64"></path><path d="M833.736 242.835C833.651 242.872 841.893 247.152 848.094 245.457C853.926 243.867 857.735 236.302 857.658 236.285C855.185 235.795 854.474 232.401 854.525 217.817L853.409 218.037L834.636 221.755C834.636 221.755 835.062 227.662 835.076 233.227C835.089 237.902 834.805 242.334 833.736 242.835" fill="#FBC49D"></path><path d="M834.636 221.755C834.636 221.755 835.062 227.661 835.076 233.227C845.58 232.932 851.135 223.348 853.408 218.037L834.636 221.755Z" fill="#FBC49D"></path><path d="M855.35 215.993C855.35 215.993 860.855 207.292 862.174 199.856C863.118 194.545 860.415 174.858 840.634 177.693C840.634 177.693 834.89 178.262 829.487 181.909C825.194 184.808 818.996 191.07 825.924 208.249L827.724 214.051L855.35 215.993Z" fill="#2C3A64"></path><path d="M831.128 227.025C831.128 227.025 855.983 227.435 856 211.95C856.017 196.47 859.238 186.094 843.368 185.177C827.498 184.26 824.409 190.163 823.147 195.333C821.882 200.499 824.663 226.518 831.128 227.025Z" fill="#FBC49D"></path><path d="M832.048 184.798C832.048 184.798 838.851 202.962 849.298 205.648C859.742 208.334 864.272 205.536 864.272 205.536C864.272 205.536 860.449 196.192 858.788 185.082C858.788 185.082 837.18 176.151 832.048 184.798Z" fill="#2C3A64"></path><path d="M833.733 186.273C833.733 186.273 828.651 190.329 827.413 194.27C826.171 198.212 825.617 206.331 823.249 206.054C823.249 206.054 818.123 193.705 823.885 186.723C829.994 179.317 833.733 186.273 833.733 186.273Z" fill="#2C3A64"></path><path d="M889.086 309.705C891.536 299.424 883.196 279.477 874.492 262.961C866.592 247.994 858.392 235.849 857.658 236.285C836.821 248.651 834.94 238.373 834.94 238.373C834.93 238.373 816.016 240.886 810.657 250.109C804.012 261.554 796.83 293.53 789.699 299.586C790.791 302.935 790.321 304.721 789.161 308.876C788.914 309.766 788.64 310.611 788.335 311.413C787.26 314.336 785.916 316.708 784.756 318.768C788.383 320.97 795.382 325.158 800.541 322.148C808.404 317.543 814.541 303.534 817.995 297.955C818.008 297.932 818.018 297.911 818.032 297.891C825.539 340.375 815.332 350.051 820.498 354.534C825.955 359.263 833.75 352.28 850.895 359.713C862.14 364.591 877.75 371.645 888.254 372.873C893.765 373.519 897.876 372.559 899.219 368.837C903.113 358.025 884.408 329.303 889.086 309.705" fill="#91B3FA"></path><path d="M836.652 217.638C836.652 217.638 836.189 219.606 831.297 219.302C831.297 219.302 827.186 219.048 827.315 216.886C827.315 216.886 831.297 215.347 836.652 217.638" fill="white"></path><path d="M899.219 368.837C897.876 372.559 893.765 373.519 888.254 372.873C880.984 369.703 849.569 357.534 849.921 349.286C850.442 337.077 855.96 336.688 852.066 321.62C848.936 309.519 877.96 287.021 882.591 282.129C891.296 298.645 891.536 299.424 889.087 309.705C884.408 329.303 903.113 358.025 899.219 368.837" fill="#91B3FA"></path><path d="M902.767 324.803C897.196 316.981 891.394 312.844 887.574 310.763C888.454 308.5 864.143 278.695 864.143 274.074C864.143 269.398 857.658 236.285 857.658 236.285C857.658 236.285 877.912 237.533 884.929 247.317C893.697 259.55 911.915 306.626 902.767 324.803Z" fill="#91B3FA"></path><path d="M887.574 310.763L847.096 321.325L850.895 328.146C850.895 328.146 900.159 327.8 902.767 324.803C905.379 321.806 887.574 310.763 887.574 310.763" fill="#FBC49D"></path><path d="M817.995 297.955C814.541 303.534 808.404 317.543 800.541 322.147C795.382 325.158 788.383 320.97 784.756 318.768C785.916 316.707 787.26 314.336 788.335 311.413C791.231 312.076 794.76 312.922 797.037 313.608C801.468 314.948 817.995 297.955 817.995 297.955Z" fill="#91B3FA"></path><path d="M847.096 321.325C847.096 321.325 834.382 317.728 831.354 318.571C828.326 319.41 817.954 326.281 819.412 328.145C820.87 330.012 830.008 327.029 834.216 327.593C838.422 328.158 841.673 330.232 844.7 329.782C847.728 329.336 850.895 328.145 850.895 328.145L847.096 321.325" fill="#FBC49D"></path><path d="M847.096 321.325C847.096 321.325 840.874 318.132 839.105 316.312C838.885 316.082 838.506 316.132 838.334 316.4C837.86 317.147 837.417 318.592 839.599 320.026C842.739 322.093 847.096 321.325 847.096 321.325Z" fill="#FBC49D"></path><path d="M788.349 339.211H847.658C847.658 336.599 845.54 334.481 842.928 334.481H788.349V339.211Z" fill="#0C5AD7"></path><path d="M788.518 274.618H696.823L718.817 339.211H811.107L788.518 274.618Z" fill="#0C5AD7"></path><path d="M695.47 274.619L717.47 339.208H809.757L787.168 274.619H695.47Z" fill="#0C5AD7"></path><path d="M744.911 306.318C745.479 308.784 747.942 310.787 750.411 310.787C752.878 310.787 754.417 308.784 753.845 306.318C753.277 303.848 750.814 301.849 748.348 301.849C745.878 301.849 744.339 303.848 744.911 306.318Z" fill="#FBC49D"></path><path d="M695.47 274.619L717.47 339.208H778.585C738.1 325.392 727.325 283.256 725.515 274.619H695.47Z" fill="#0C5AD7"></path><path d="M961.673 536.843C960.513 536.843 959.522 536.027 959.326 534.918L947.81 469.638L931.243 375.758L926.611 349.506L938.408 349.167L940.458 364.408L954.83 471.506L963.351 534.985C963.483 535.97 962.695 536.843 961.673 536.843" fill="#95C0F4"></path><path d="M940.458 364.409C932.813 367.782 931.243 375.759 931.243 375.759L926.611 349.506L938.408 349.168L940.458 364.409" fill="#78ACEA"></path><path d="M668.206 536.843C669.363 536.843 670.358 536.027 670.554 534.918L682.07 469.638L698.637 375.758L703.268 349.506L691.468 349.167L689.421 364.408L675.05 471.506L666.528 534.985C666.396 535.97 667.184 536.843 668.206 536.843" fill="#95C0F4"></path><path d="M689.421 364.409C697.067 367.782 698.637 375.759 698.637 375.759L703.268 349.506L691.468 349.168L689.421 364.409" fill="#78ACEA"></path><path d="M969.546 359.811H667.401C663.443 359.811 660.205 356.573 660.205 352.615V346.393C660.205 342.435 663.443 339.198 667.401 339.198H969.546C973.504 339.198 976.742 342.435 976.742 346.393V352.615C976.742 356.573 973.504 359.811 969.546 359.811" fill="#78ACEA"></path></svg> 